<?xml version="1.0" encoding="UTF-8"?>
<svg width="24px" height="24px" viewBox="0 0 24 24" version="1.1" xmlns="http://www.w3.org/2000/svg" xmlns:xlink="http://www.w3.org/1999/xlink">
    <title>z内部/ic/search</title>
    <g id="z内部/ic/search" stroke="none" stroke-width="1" fill="none" fill-rule="evenodd">
        <path d="M14.6356012,14.9133602 L14.7099204,14.9193818 C14.7189703,14.9205669 14.7280029,14.921917 14.737013,14.9234322 C14.7721355,14.9293903 14.8071626,14.9378843 14.8414986,14.9488836 C14.8584257,14.9543648 14.8692791,14.9582234 14.8800565,14.9623396 C14.9011784,14.9704608 14.9220311,14.9795154 14.9424956,14.9895424 C14.9595294,14.9978861 14.9760585,15.0067913 14.9923043,15.016361 C15.0103885,15.0269708 15.0280374,15.0383712 15.0452586,15.0505686 C15.0494539,15.0536257 15.0539591,15.0568935 15.0584356,15.0602175 L15.08379,15.0797837 C15.0981725,15.0914427 15.1121997,15.1037011 15.1258353,15.1165554 L15.142527,15.1328669 L20.525527,20.5198669 C20.8183114,20.8128689 20.8181351,21.2877426 20.5251331,21.580527 C20.2587676,21.8466947 19.842095,21.870746 19.5485644,21.6527825 L19.464473,21.5801331 L14.5399652,16.6523356 C13.2232316,17.5521167 11.6596545,18.045 10.022,18.045 C5.59161587,18.045 2,14.453043 2,10.022 C2,5.59178644 5.59178644,2 10.022,2 C14.453043,2 18.045,5.59161587 18.045,10.022 C18.045,11.2878046 17.7502511,12.5141955 17.1931359,13.6227757 C17.0071398,13.9928816 16.5563301,14.142132 16.1862243,13.9561359 C15.8161184,13.7701398 15.666868,13.3193301 15.8528641,12.9492243 C16.3056385,12.0482675 16.545,11.0523324 16.545,10.022 C16.545,6.42007489 13.6246477,3.5 10.022,3.5 C6.42021356,3.5 3.5,6.42021356 3.5,10.022 C3.5,13.6246477 6.42007489,16.545 10.022,16.545 C11.5439379,16.545 12.9836529,16.0231382 14.1380077,15.0817675 L14.154,15.07 L14.1758472,15.0527176 C14.1876773,15.0442413 14.1996984,15.0361507 14.2118932,15.0284458 L14.1380077,15.0817675 C14.1720537,15.0540031 14.2078033,15.0297234 14.2448243,15.0088847 C14.2639676,14.9980527 14.2833781,14.9882513 14.3030947,14.9793465 C14.3255848,14.9691947 14.3482237,14.9602785 14.371133,14.9525154 C14.3799347,14.9495743 14.3889737,14.9467058 14.3980536,14.9440126 C14.426789,14.9354192 14.4559471,14.9286481 14.4853078,14.9236448 C14.4932718,14.9223538 14.5016497,14.9210664 14.5100432,14.9199211 C14.5395187,14.9158599 14.5686048,14.9136398 14.5976839,14.9131044 C14.604055,14.9130092 14.6110753,14.9129679 14.6180949,14.9130246 L14.6356012,14.9133602 L14.6356012,14.9133602 Z" id="形状结合" fill="#939393"></path>
    </g>
</svg>