<?xml version="1.0" encoding="UTF-8"?>
<svg width="66px" height="61px" viewBox="0 0 66 61" version="1.1" xmlns="http://www.w3.org/2000/svg" xmlns:xlink="http://www.w3.org/1999/xlink">
    <title>矩形</title>
    <defs>
        <linearGradient x1="19.4429851%" y1="13.6557292%" x2="12.6337438%" y2="24.3163709%" id="linearGradient-1">
            <stop stop-color="#F4F6F6" offset="0.0870988176%"></stop>
            <stop stop-color="#E5E9E9" offset="100%"></stop>
        </linearGradient>
        <linearGradient x1="14.7660646%" y1="34.6274514%" x2="91.0316995%" y2="86.9290392%" id="linearGradient-2">
            <stop stop-color="#DDE2E3" offset="0%"></stop>
            <stop stop-color="#EBF2F2" offset="99.9208193%"></stop>
        </linearGradient>
        <linearGradient x1="0.410086721%" y1="39.7634889%" x2="99.5899133%" y2="54.700815%" id="linearGradient-3">
            <stop stop-color="#FFFFFF" stop-opacity="0.691652098" offset="0%"></stop>
            <stop stop-color="#FFFFFF" stop-opacity="0" offset="100%"></stop>
        </linearGradient>
        <path d="M70.3316318,26.4515259 C73.4082701,26.0189302 75.9011212,28.3576961 75.8946862,31.6846323 L75.8946862,62.8275598 C75.8880999,66.1494321 73.3851212,69.1891768 70.3084829,69.6224959 L33.164568,74.8425811 C30.0872063,75.2744534 27.5950786,72.9364108 27.6,69.6152619 L27.6015893,38.4723344 C27.6073765,35.1453983 30.1096318,32.1042068 33.1869935,31.6723344 L70.3316318,26.4515259 Z" id="path-4"></path>
        <filter x="-3.1%" y="-3.1%" width="106.2%" height="106.2%" filterUnits="objectBoundingBox" id="filter-5">
            <feGaussianBlur stdDeviation="1.5" in="SourceAlpha" result="shadowBlurInner1"></feGaussianBlur>
            <feOffset dx="0" dy="0" in="shadowBlurInner1" result="shadowOffsetInner1"></feOffset>
            <feComposite in="shadowOffsetInner1" in2="SourceAlpha" operator="arithmetic" k2="-1" k3="1" result="shadowInnerInner1"></feComposite>
            <feColorMatrix values="0 0 0 0 1   0 0 0 0 1   0 0 0 0 1  0 0 0 0.696350524 0" type="matrix" in="shadowInnerInner1"></feColorMatrix>
        </filter>
        <linearGradient x1="4.18433695%" y1="94.6051464%" x2="4.18433695%" y2="59.1746261%" id="linearGradient-6">
            <stop stop-color="#990B13" offset="0%"></stop>
            <stop stop-color="#C50E18" offset="100%"></stop>
        </linearGradient>
    </defs>
    <g id="页面-1" stroke="none" stroke-width="1" fill="none" fill-rule="evenodd">
        <g id="0421简介" transform="translate(-334.000000, -225.000000)">
            <g id="矩形" transform="translate(320.000000, 211.000000)">
                <g id="编组备份" transform="translate(70.800000, 32.400000)">
                    <g id="编组-2" fill="#1C1C1C">
                        <path d="M2.8,0 C3.12860923,0 3.44399696,0.0566079278 3.73694359,0.160604171 C4.25172858,0.343353171 6.47619784,1.50640333 6.85325994,1.69545092 C7.77043905,2.15529691 8.4,3.10412754 8.4,4.2 L8.4,14 C8.4,15.5463973 7.1463973,16.8 5.6,16.8 C5.24533661,16.8 4.90607438,16.7340598 4.59380437,16.6137703 C4.46597362,16.5645287 1.83697306,15.270714 1.43257589,15.0439637 C0.577722141,14.5646371 0,13.6497856 0,12.6 L0,2.8 C0,1.2536027 1.2536027,0 2.8,0 Z" id="路径"></path>
                    </g>
                    <rect id="矩形" fill="#424242" x="2.8" y="1.4" width="5.6" height="15.4" rx="2.32"></rect>
                </g>
                <path d="M74.8087527,26.9912356 C75.5249874,27.9028468 75.9494312,29.1093039 75.9468222,30.4846323 L75.894625,62.5482496 C75.8881144,65.8701219 73.3851356,68.9098666 70.3084973,69.3431858 L33.1645824,74.5632709 C31.5686519,74.7872414 30.1301197,74.2662444 29.1156477,73.2495007 C28.1739586,72.305703 19.1816395,63.4103208 18.1615762,62.2876876 C17.3114863,61.3521191 16.7977814,60.0456008 16.8,58.5359517 L16.8536888,26.4723344 C16.8594761,23.1453983 19.3617314,20.1042068 22.4390931,19.6723344 L59.5837314,14.4515259 C60.8312801,14.2761123 61.9828409,14.5563739 62.9107004,15.1734217 C64.2710784,16.0781045 73.7924069,25.6976483 74.8087527,26.9912356 Z" id="路径" fill="url(#linearGradient-1)"></path>
                <g id="Fill-1备份-2">
                    <use fill="url(#linearGradient-2)" fill-rule="evenodd" xlink:href="#path-4"></use>
                    <use fill="black" fill-opacity="1" filter="url(#filter-5)" xlink:href="#path-4"></use>
                    <path stroke="url(#linearGradient-3)" stroke-width="0.5" d="M70.3664411,26.6990907 C71.8243084,26.4941049 73.1449412,26.9437997 74.0994307,27.8416779 C75.0599499,28.7452282 75.6477538,30.0984288 75.6446862,31.6846323 L75.6446862,31.6846323 L75.6446866,62.8270641 C75.6415105,64.428986 75.0356385,65.9624069 74.0608419,67.1481282 C73.0900294,68.3290035 71.7519031,69.1667347 70.2736906,69.3749288 L70.2736906,69.3749288 L33.1298238,74.5950071 C31.6718936,74.7996109 30.3514797,74.3501641 29.3969046,73.4534424 C28.4359405,72.5507189 27.8476536,71.1988938 27.85,69.6152747 L27.85,69.6152747 L27.8515889,38.4727693 C27.8543797,36.8683873 28.459839,35.3333585 29.4344482,34.1468119 C30.4050378,32.9651589 31.743129,32.1274141 33.2217899,31.919901 L33.2217899,31.919901 Z" stroke-linejoin="square"></path>
                </g>
                <g id="编组" transform="translate(14.400000, 39.600000)">
                    <g id="编组-2" fill="#1C1C1C">
                        <path d="M2.8,0 C3.12860923,0 3.44399696,0.0566079278 3.73694359,0.160604171 C4.25172858,0.343353171 6.47619784,1.50640333 6.85325994,1.69545092 C7.77043905,2.15529691 8.4,3.10412754 8.4,4.2 L8.4,14 C8.4,15.5463973 7.1463973,16.8 5.6,16.8 C5.24533661,16.8 4.90607438,16.7340598 4.59380437,16.6137703 C4.46597362,16.5645287 1.83697306,15.270714 1.43257589,15.0439637 C0.577722141,14.5646371 0,13.6497856 0,12.6 L0,2.8 C0,1.2536027 1.2536027,0 2.8,0 Z" id="路径"></path>
                    </g>
                    <rect id="矩形" fill="#424242" x="2.8" y="1.4" width="5.6" height="15.4" rx="2.32"></rect>
                </g>
                <g id="编组-2备份" transform="translate(42.000000, 45.600000)">
                    <path d="M2,0 C2.23472088,0 2.45999783,0.0485210809 2.66924542,0.137660718 C3.03694898,0.294302718 4.88299167,1.26395807 5.15232174,1.42599885 C5.80744967,1.82015256 6,2.66068074 6,3.6 L6,12 C6,13.3254834 5.1045695,14.4 4,14.4 C3.74666901,14.4 3.50433885,14.3434798 3.28128883,14.2403746 C3.18998115,14.1981675 1.31212361,13.0891834 1.02326849,12.894826 C0.412658672,12.4839746 0,11.6998163 0,10.8 L0,2.4 C0,1.0745166 0.8954305,0 2,0 Z" id="路径" fill="url(#linearGradient-6)"></path>
                    <rect id="矩形" fill="#DC131E" x="2.4" y="1.2" width="3.6" height="13.2" rx="1.8"></rect>
                </g>
                <g id="编组-2备份-2" transform="translate(60.000000, 43.200000)">
                    <path d="M2,0 C2.23472088,0 2.45999783,0.0485210809 2.66924542,0.137660718 C3.03694898,0.294302718 4.75864628,1.23092985 5.02797635,1.39297063 C5.68310429,1.78712434 6,2.66068074 6,3.6 L6,12 C6,13.3254834 5.1045695,14.4 4,14.4 C3.74666901,14.4 3.50433885,14.3434798 3.28128883,14.2403746 C3.18998115,14.1981675 1.31212361,13.0891834 1.02326849,12.894826 C0.412658672,12.4839746 0,11.6998163 0,10.8 L0,2.4 C0,1.0745166 0.8954305,0 2,0 Z" id="路径" fill="url(#linearGradient-6)"></path>
                    <rect id="矩形" fill="#DC131E" x="2.4" y="1.2" width="3.6" height="13.2" rx="1.8"></rect>
                </g>
            </g>
        </g>
    </g>
</svg>